# xmcd
#
# Track frame offsets:
# 150
# 14302
# 28725
# 45107
# 58412
# 75805
# 86982
# 100600
# 113755
# 124237
#
# Disc length: 1829 seconds
#
#
# Revision: 3
# Processed by: cddbd v1.5.1PL2 Copyright (c) Steve Scherf et al.
# Submitted via: FreeRIP 2.943 
#
DISCID=7107230a
DTITLE=Ricky Skaggs - Waitin' For The Sun To Shine
DYEAR=1985
DGENRE=Country
TTITLE0=If That's The Way You Feel
TTITLE1=Don't Get Above Your Raising
TTITLE2=Your Old Love Letters
TTITLE3=Low And Lonely
TTITLE4=Waitin' For The Sun To Shine
TTITLE5=You May See Me Walkin'
TTITLE6=Crying My Heart Out Over You
TTITLE7=Lost To A Stranger
TTITLE8=I Don't Care
TTITLE9=So Round, So Firm, So Fully Packed
EXTD=
EXTT0=
EXTT1=
EXTT2=
EXTT3=
EXTT4=
EXTT5=
EXTT6=
EXTT7=
EXTT8=
EXTT9=
PLAYORDER=
